<svg 
 xmlns="http://www.w3.org/2000/svg"
 xmlns:xlink="http://www.w3.org/1999/xlink"
 width="15px" height="13px">
<path fill-rule="evenodd"  fill="rgb(161, 161, 161)"
 d="M14.690,2.277 C14.585,2.436 14.480,2.584 14.358,2.727 C14.047,3.111 13.688,3.451 13.286,3.742 L13.236,3.835 C13.249,4.268 13.229,4.702 13.171,5.135 C13.054,6.045 12.790,6.917 12.399,7.746 C11.987,8.601 11.460,9.375 10.797,10.055 C9.669,11.212 8.319,11.959 6.748,12.304 C6.209,12.419 5.666,12.480 5.112,12.496 C5.023,12.498 4.935,12.500 4.847,12.500 C3.259,12.500 1.787,12.076 0.431,11.234 L0.361,11.191 C0.593,11.215 0.822,11.228 1.050,11.228 C1.825,11.228 2.570,11.083 3.298,10.790 C3.799,10.582 4.262,10.318 4.698,9.973 C3.179,9.924 2.233,8.826 1.987,7.938 C2.169,7.973 2.351,7.990 2.532,7.990 C2.769,7.990 3.006,7.961 3.244,7.905 L3.288,7.883 C2.461,7.691 1.828,7.252 1.394,6.539 C1.102,6.067 0.969,5.546 0.973,4.981 C1.388,5.201 1.815,5.321 2.276,5.332 C1.659,4.888 1.247,4.301 1.083,3.555 C0.918,2.809 1.033,2.101 1.417,1.432 C2.988,3.303 4.988,4.329 7.438,4.498 C7.423,4.378 7.407,4.279 7.391,4.175 C7.314,3.484 7.462,2.842 7.839,2.261 C8.311,1.526 8.978,1.070 9.835,0.933 C10.017,0.903 10.195,0.888 10.368,0.888 C11.136,0.888 11.814,1.182 12.396,1.751 C12.432,1.783 12.463,1.801 12.504,1.801 C12.517,1.801 12.532,1.799 12.549,1.794 C13.153,1.668 13.726,1.449 14.260,1.142 L14.298,1.120 C14.085,1.800 13.658,2.326 13.052,2.716 C13.623,2.656 14.162,2.502 14.690,2.277 Z"/>
</svg>