<svg width="0" height="0" class="hidden">
 <symbol xmlns="http://www.w3.org/2000/svg" viewBox="0 0 18.94 16.969" id="basket">
    <path d="M5.53 16.978a2.074 2.074 0 110-4.147 2.056 2.056 0 011.46.6 2.03 2.03 0 01.61 1.466 2.071 2.071 0 01-2.07 2.081zm0-2.963a.889.889 0 10.34 1.71.9.9 0 00.55-.824.92.92 0 00-.26-.629.9.9 0 00-.63-.257zm8.39 2.963a2.045 2.045 0 01-1.46-.607 2.068 2.068 0 011.46-3.54 1.953 1.953 0 011.47.6 2.085 2.085 0 01-.67 3.383 2.093 2.093 0 01-.8.164zm0-2.963a.978.978 0 00-.82.548.887.887 0 001.16 1.161.891.891 0 00.29-1.452.9.9 0 00-.63-.257zm-11.27.164a.562.562 0 01-.25-.056.59.59 0 01-.29-.787 3.686 3.686 0 013.05-2.151L4.11 5.794a.591.591 0 111.16-.228l1.09 5.578h9.43l1.8-6.771H4.29A4.346 4.346 0 01.01.68.587.587 0 01.5.007a.6.6 0 01.68.5 3.159 3.159 0 003.11 2.682h14.07a.582.582 0 01.47.232.594.594 0 01.11.513l-2.13 7.956a.59.59 0 01-.57.44H5.88a.03.03 0 00-.02 0 2.66 2.66 0 00-2.68 1.51.586.586 0 01-.53.338z"></path>
  </symbol>
  <symbol xmlns="http://www.w3.org/2000/svg" viewBox="0 0 18 17" id="like">
    <path d="M8.913 16.244a.707.707 0 01-.28-.056c-.353-.15-8.65-3.75-8.65-10.76C.074 2.779 2.19.722 4.801.722c1.743 0 3.266.918 4.112 2.31a4.796 4.796 0 014.112-2.31c2.61 0 4.725 2.058 4.817 4.684 0 7.034-8.297 10.634-8.65 10.783a.71.71 0 01-.28.056zM4.8 2.106c-1.847 0-3.343 1.47-3.408 3.346 0 5.408 6.125 8.663 7.52 9.335 1.395-.672 7.52-3.93 7.52-9.358-.065-1.853-1.563-3.323-3.408-3.323s-3.342 1.47-3.408 3.346a.7.7 0 01-.704.67.7.7 0 01-.705-.67C8.143 3.576 6.646 2.106 4.8 2.106z"></path>
  </symbol>
  <symbol xmlns="http://www.w3.org/2000/svg" viewBox="0 0 20.03 20.031" id="points">
    <path d="M2.15 4.287a2.146 2.146 0 112.14-2.145 2.145 2.145 0 01-2.14 2.145zm0 7.869a2.146 2.146 0 112.14-2.147 2.146 2.146 0 01-2.14 2.147zm0 7.868a2.146 2.146 0 112.14-2.146 2.145 2.145 0 01-2.14 2.146zm7.86-15.737a2.146 2.146 0 112.15-2.145 2.143 2.143 0 01-2.15 2.145zm0 7.869a2.146 2.146 0 112.15-2.147 2.144 2.144 0 01-2.15 2.147zm0 7.868a2.146 2.146 0 112.15-2.146 2.143 2.143 0 01-2.15 2.146zm7.87-15.737a2.146 2.146 0 112.15-2.145 2.143 2.143 0 01-2.15 2.145zm0 7.869a2.146 2.146 0 112.15-2.147 2.144 2.144 0 01-2.15 2.147zm0 7.868a2.146 2.146 0 112.15-2.146 2.143 2.143 0 01-2.15 2.146z"></path>
  </symbol>
  <symbol xmlns="http://www.w3.org/2000/svg" viewBox="0 0 15.28 15.281" id="search">
    <path d="M2.98 6.076a.617.617 0 01.75.485 2.583 2.583 0 00.78 1.489A3.036 3.036 0 006 8.827a.636.636 0 01.49.743.649.649 0 01-.72.515 4.21 4.21 0 01-2.14-1.13A4.164 4.164 0 012.5 6.819a.6.6 0 01.48-.743zM6.26 0a6.267 6.267 0 016.28 6.257 6.136 6.136 0 01-.57 2.6l2.34 2.036c1.7 1.746.74 3.266.29 3.717-.42.454-1.99 1.414-3.73-.292l-2.06-2.35A6.261 6.261 0 116.26 0zm5.55 13.517a1.352 1.352 0 001.88.226 1.313 1.313 0 00-.23-1.874l-2.16-1.88a6.236 6.236 0 01-1.37 1.34zm-5.55-2.312a4.948 4.948 0 10-4.97-4.948A4.963 4.963 0 006.26 11.2z"></path>
  </symbol>
   <symbol xmlns="http://www.w3.org/2000/svg" viewBox="0 0 22 9" id="arrow">
    <path d="M.296 5.472H.288h16.956l-.1 2.857a.284.284 0 00-.084.205c0 .077.029.151.084.205l.172.172a.285.285 0 00.407.002l4.193-4.211a.292.292 0 000-.409L17.723.08a.29.29 0 00-.407 0l-.172.173a.287.287 0 000 .405l.113 2.865H.292A.297.297 0 000 3.818v1.37c0 .159.137.284.296.284z"></path>
  </symbol>
    <symbol xmlns="http://www.w3.org/2000/svg" viewBox="0 0 22 20" id="basket">
    <path d="M21.934 5.216l-3.717 8.56a.813.813 0 01-.746.488H7.257a.814.814 0 01-.787-.597L3.147 1.629H.814A.817.817 0 010 .814c0-.449.366-.816.814-.816h2.943c.367 0 .692.245.787.598l3.323 12.038h9.062l3.011-6.929H9.902a.816.816 0 010-1.631h11.286c.271 0 .529.137.678.366a.829.829 0 01.068.776zM6.484 16.303a1.848 1.848 0 010 3.696 1.849 1.849 0 010-3.696zm11.408 0a1.85 1.85 0 011.519 3.057c-.326.38-.773.598-1.262.639h-.135a1.85 1.85 0 01-1.831-1.726 1.849 1.849 0 011.709-1.97z"></path>
  </symbol>
  <symbol xmlns="http://www.w3.org/2000/svg" viewBox="0 0 22 18" id="like">
    <path d="M21.99 5.82a6.212 6.212 0 00-1.849-4.1C19.016.61 17.545-.001 16.002-.001c-2.311 0-3.948 1.785-4.827 2.745l-.156.169-.083-.094c-.804-.916-2.476-2.82-4.938-2.82-1.543 0-3.013.611-4.139 1.721A6.212 6.212 0 00.01 5.82c-.082 1.541.31 2.88 1.271 4.338.861 1.308 3.104 3.374 4.763 4.748 1.705 1.411 3.95 3.093 4.965 3.093 1.032 0 3.269-1.68 4.965-3.087 1.646-1.367 3.876-3.432 4.746-4.754.646-.984 1.375-2.366 1.27-4.338zm-2.376 3.61c-.632.961-2.412 2.736-4.431 4.418-2.406 2.004-3.831 2.795-4.172 2.826-.342-.035-1.77-.833-4.188-2.843-2.03-1.686-3.813-3.454-4.437-4.402-.795-1.206-1.12-2.297-1.054-3.538.135-2.519 2.228-4.569 4.666-4.569 1.863 0 3.216 1.542 3.943 2.37.428.488.663.755 1.059.755.409 0 .672-.286 1.151-.809.794-.866 2.122-2.316 3.851-2.316 2.438 0 4.531 2.05 4.666 4.569.067 1.254-.248 2.313-1.054 3.539z"></path>
  </symbol>
  <symbol xmlns="http://www.w3.org/2000/svg" viewBox="0 0 20 20" id="search">
    <path d="M19.45 19.448a1.873 1.873 0 01-2.651 0l-4.588-4.588a8.819 8.819 0 002.651-2.651l4.588 4.589c.733.732.733 1.92 0 2.65zM7.5 14.999A7.5 7.5 0 117.502-.003 7.5 7.5 0 017.5 15zm0-13.126a5.632 5.632 0 00-5.625 5.626A5.63 5.63 0 007.5 13.123a5.63 5.63 0 005.625-5.624A5.632 5.632 0 007.5 1.873zM4.375 7.499h-1.25A4.381 4.381 0 017.5 3.123v1.251a3.129 3.129 0 00-3.125 3.125z"></path>
  </symbol>
    <symbol xmlns="http://www.w3.org/2000/svg" viewBox="0 0 22 25" id="play-icon">
    <path d="M20.684 14.74L4.64 24.536a3.236 3.236 0 01-3.062.144c-.972-.47-1.579-1.387-1.579-2.385V2.7c0-.999.607-1.917 1.579-2.386A3.24 3.24 0 014.64.457l16.044 9.798c.822.502 1.315 1.343 1.315 2.241 0 .9-.493 1.741-1.315 2.244z"></path>
  </symbol>
   <symbol xmlns="http://www.w3.org/2000/svg" viewBox="0 0 7 12" id="arrow-right">
    <path d="M1.333 11.687a.557.557 0 01-.411-.183.602.602 0 01.022-.831l4.547-4.475L.944 1.724A.602.602 0 01.922.893.552.552 0 011.723.87L6.7 5.768l.014.014a.545.545 0 01.113.169h.001a.611.611 0 01.052.244v.003a.609.609 0 01-.053.249l-.001.001v.002a.594.594 0 01-.111.164l-.015.014-4.977 4.899a.551.551 0 01-.39.16z"></path>
  </symbol>
    <symbol xmlns="http://www.w3.org/2000/svg" viewBox="0 0 15 15" id="shop-btn1">
    <path d="M0 3.75h3.75V0H0v3.75zM5.625 15h3.75v-3.75h-3.75V15zM0 15h3.75v-3.75H0V15zm0-5.625h3.75v-3.75H0v3.75zm5.625 0h3.75v-3.75h-3.75v3.75zM11.25 0v3.75H15V0h-3.75zM5.625 3.75h3.75V0h-3.75v3.75zm5.625 5.625H15v-3.75h-3.75v3.75zm0 5.625H15v-3.75h-3.75V15z"></path>
  </symbol>
  <symbol xmlns="http://www.w3.org/2000/svg" viewBox="0 0 20 15" id="shop-btn2">
    <path d="M5.835 14.998v-4.171h14.159v4.171H5.835zm0-9.585h14.159v4.172H5.835V5.413zm0-5.413h14.159v4.172H5.835V0zM.007 10.827h4.422v4.171H.007v-4.171zm0-5.414h4.422v4.172H.007V5.413zM.007 0h4.422v4.172H.007V0z"></path>
  </symbol>

    <symbol xmlns="http://www.w3.org/2000/svg" viewBox="0 0 29 26" id="filter">
    <path d="M27.54 2.352H10.819A3.455 3.455 0 007.549 0c-1.519 0-2.81.986-3.27 2.352H1.67a1.098 1.098 0 000 2.196h2.61a3.455 3.455 0 003.27 2.351c1.518 0 2.81-.986 3.27-2.351h16.72a1.098 1.098 0 100-2.196zM7.549 4.704A1.255 1.255 0 016.295 3.45a1.255 1.255 0 012.508 0c0 .691-.563 1.254-1.254 1.254zM27.54 11.76h-2.61a3.455 3.455 0 00-3.27-2.352c-1.518 0-2.81.986-3.27 2.352H1.67a1.098 1.098 0 100 2.195h16.72a3.455 3.455 0 003.27 2.352c1.518 0 2.81-.986 3.27-2.352h2.61a1.098 1.098 0 000-2.195zm-5.88 2.351a1.255 1.255 0 01-1.254-1.254c0-.691.563-1.254 1.254-1.254.692 0 1.254.563 1.254 1.254 0 .692-.563 1.254-1.254 1.254zm5.88 7.056H15.522a3.455 3.455 0 00-3.27-2.352c-1.518 0-2.81.986-3.269 2.352H1.669a1.098 1.098 0 100 2.195h7.314a3.455 3.455 0 003.27 2.352c1.518 0 2.81-.986 3.27-2.351H27.54a1.098 1.098 0 100-2.196zm-15.287 2.352a1.255 1.255 0 01-1.254-1.254 1.255 1.255 0 012.508 0c0 .691-.563 1.254-1.254 1.254z"></path>
  </symbol>
   <symbol xmlns="http://www.w3.org/2000/svg" viewBox="0 0 15 11" id="about-arrow">
    <path d="M8.931 11.007a.627.627 0 00.425-.161l5.434-4.912a.921.921 0 00.05-.049v-.001h.001a.57.57 0 00-.017-.781l-.033-.031L9.356.16a.639.639 0 00-.874.022.57.57 0 00.024.834l4.311 3.897H.631a.604.604 0 00-.617.59c0 .325.276.589.617.589h12.186L8.506 9.99a.57.57 0 00-.024.834.632.632 0 00.449.183z"></path>
  </symbol>
   <symbol xmlns="http://www.w3.org/2000/svg" viewBox="0 0 23 15" id="gmail">
    <path  d="M22.691 5.835v.069l-.014 1.816-.001.076H20.17l-.018 2.431-.001.069H18.19v-.069l.019-2.431h-2.507l.001-.076.014-1.816v-.069h2.507l.018-2.438.001-.069h1.961l-.001.069-.018 2.438h2.506zm-13.584 8.28a7.722 7.722 0 01-2.356.235c-1.409-.083-2.689-.525-3.823-1.361C1.466 11.912.545 10.475.158 8.701A6.498 6.498 0 01.02 6.767a7.048 7.048 0 011.62-4.102A7.123 7.123 0 015.505.207a5.767 5.767 0 011.19-.186C6.922.013 7.15 0 7.378 0a6.743 6.743 0 013.398.932c.701.401 1.098.808 1.269.932-.716.705-1.404 1.395-2.107 2.086-.522-.45-1.099-.863-2.099-1.016a4.423 4.423 0 00-.613-.044c-2.007 0-3.688 1.451-4.136 3.353a3.945 3.945 0 00-.1 1.298c.153 1.768 1.336 3.218 2.935 3.736.407.128.829.189 1.254.189.099 0 .198-.003.298-.009.753-.049 1.458-.249 2.098-.671 1.075-.732 1.423-1.878 1.425-2.161H7.154l.021-2.77.007-.117h6.754c.364 2.107.036 4.323-1.275 6.056-.907 1.195-2.114 1.948-3.554 2.321z"></path>
  </symbol>
  <symbol xmlns="http://www.w3.org/2000/svg" viewBox="0 0 18 18" id="insta">
    <path d="M16.908 13.563c-.533 1.96-1.813 3.12-3.797 3.439-.742.119-2.745.191-4.744.191-2.047 0-4.091-.075-4.779-.254-1.95-.504-3.114-1.774-3.424-3.749-.231-1.451-.255-8.191.164-9.654C.874 1.63 2.147.51 4.075.193c.874-.143 2.583-.194 4.31-.194 1.605 0 3.224.044 4.199.098 1.18.062 2.261.442 3.139 1.284.836.801 1.264 1.802 1.372 2.935.128 1.353.211 7.748-.187 9.247zm-1.361-9.102c-.154-1.513-1.079-2.507-2.575-2.742-.741-.112-2.525-.162-4.3-.162-1.712 0-3.416.047-4.166.128-1.5.172-2.508 1.098-2.747 2.59-.247 1.58-.245 7.492-.06 8.68.191 1.236.889 2.085 2.122 2.43.668.188 2.666.254 4.626.254 1.803 0 3.575-.056 4.24-.129 1.514-.166 2.515-1.098 2.754-2.603.247-1.513.247-7.03.106-8.446zm-2.338.594a1.033 1.033 0 01.01-2.065h.012c.567 0 1.026.463 1.021 1.036a1.042 1.042 0 01-1.043 1.029zM8.563 13.01a4.365 4.365 0 01-4.372-4.413 4.443 4.443 0 014.446-4.406 4.37 4.37 0 014.372 4.413 4.451 4.451 0 01-4.446 4.406zm.083-7.265H8.62A2.881 2.881 0 005.744 8.57a2.827 2.827 0 002.803 2.879h.026a2.88 2.88 0 002.876-2.824 2.824 2.824 0 00-2.803-2.88z"></path>
  </symbol>
  <symbol xmlns="http://www.w3.org/2000/svg" viewBox="0 0 18 18" id="search-blog">
    <path d="M17.249 17.92a.592.592 0 01-.419-.174l-5.299-5.298a6.502 6.502 0 01-4.178 1.514A6.539 6.539 0 01.822 7.431 6.539 6.539 0 017.353.899a6.538 6.538 0 016.531 6.532 6.505 6.505 0 01-1.513 4.178l5.298 5.298a.592.592 0 01-.42 1.013zM7.353 2.087A5.35 5.35 0 002.01 7.431a5.35 5.35 0 005.343 5.344 5.351 5.351 0 005.345-5.344 5.35 5.35 0 00-5.345-5.344z"></path>
  </symbol>
  <symbol xmlns="http://www.w3.org/2000/svg" viewBox="0 0 512 512" id="calendar">
    <path d="M452 40h-24V0h-40v40H124V0H84v40H60C26.916 40 0 66.916 0 100v352c0 33.084 26.916 60 60 60h392c33.084 0 60-26.916 60-60V100c0-33.084-26.916-60-60-60zm20 412c0 11.028-8.972 20-20 20H60c-11.028 0-20-8.972-20-20V188h432v264zm0-304H40v-48c0-11.028 8.972-20 20-20h24v40h40V80h264v40h40V80h24c11.028 0 20 8.972 20 20v48z"></path>
    <path d="M76 230h40v40H76zm80 0h40v40h-40zm80 0h40v40h-40zm80 0h40v40h-40zm80 0h40v40h-40zM76 310h40v40H76zm80 0h40v40h-40zm80 0h40v40h-40zm80 0h40v40h-40zM76 390h40v40H76zm80 0h40v40h-40zm80 0h40v40h-40zm80 0h40v40h-40zm80-80h40v40h-40z"></path>
  </symbol>
  <symbol xmlns="http://www.w3.org/2000/svg" viewBox="0 0 512 512" id="user">
    <path d="M437.02 330.98c-27.883-27.882-61.071-48.523-97.281-61.018C378.521 243.251 404 198.548 404 148 404 66.393 337.607 0 256 0S108 66.393 108 148c0 50.548 25.479 95.251 64.262 121.962-36.21 12.495-69.398 33.136-97.281 61.018C26.629 379.333 0 443.62 0 512h40c0-119.103 96.897-216 216-216s216 96.897 216 216h40c0-68.38-26.629-132.667-74.98-181.02zM256 256c-59.551 0-108-48.448-108-108S196.449 40 256 40s108 48.448 108 108-48.449 108-108 108z"></path>
  </symbol>
  <symbol xmlns="http://www.w3.org/2000/svg" viewBox="0 0 9 16" id="facebook">
    <path d="M6.19.125c.413 0 .828.022 1.24.04.268.011.537.05.789.077L8.2 2.727h-.198c-.272 0-.545-.003-.818-.003a17.9 17.9 0 00-.613.008c-.659.022-1.144.269-1.177 1.092-.021.592-.036 1.901-.037 1.969l1.34.002c.327 0 .647 0 .871-.002h.531c-.133.955-.255 1.87-.388 2.792H5.357l-.053 6.971h-2.89l.053-6.982H.103l.021-2.776h2.375l.002-.208c.004-.559-.003-1.119.018-1.678.008-.351.027-.713.091-1.065.16-.849.554-1.563 1.266-2.073C4.499.33 5.208.143 5.96.127c.076-.002.153-.002.23-.002z"></path>
  </symbol>
  <symbol xmlns="http://www.w3.org/2000/svg" viewBox="0 0 15 13" id="twitter">
    <path d="M14.69 2.277c-.105.159-.21.307-.332.45-.311.384-.67.724-1.072 1.015l-.05.093c.013.433-.007.867-.065 1.3a8.702 8.702 0 01-2.374 4.92 7.904 7.904 0 01-4.049 2.249 9.057 9.057 0 01-1.636.192c-.089.002-.177.004-.265.004a8.219 8.219 0 01-4.416-1.266l-.07-.043c.232.024.461.037.689.037a5.95 5.95 0 002.248-.438 5.825 5.825 0 001.4-.817c-1.519-.049-2.465-1.147-2.711-2.035.182.035.364.052.545.052a3.1 3.1 0 00.712-.085l.044-.022c-.827-.192-1.46-.631-1.894-1.344a2.859 2.859 0 01-.421-1.558c.415.22.842.34 1.303.351-.617-.444-1.029-1.031-1.193-1.777a2.881 2.881 0 01.334-2.123c1.571 1.871 3.571 2.897 6.021 3.066-.015-.12-.031-.219-.047-.323a2.845 2.845 0 01.448-1.914C8.311 1.526 8.978 1.07 9.835.933c.182-.03.36-.045.533-.045.768 0 1.446.294 2.028.863.036.032.067.05.108.05a5.795 5.795 0 001.756-.659l.038-.022c-.213.68-.64 1.206-1.246 1.596a5.654 5.654 0 001.638-.439z"></path>
  </symbol>
  <symbol xmlns="http://www.w3.org/2000/svg" viewBox="0 0 18 15" id="commen">
    <path fill-rule="evenodd" fill="#436372" d="M16.714 12.518H5.766L3.303 14.88a.441.441 0 01-.467.089.413.413 0 01-.265-.38v-2.071H1.286C.577 12.518 0 11.965 0 11.285V1.424C0 .744.577.191 1.286.191h15.428C17.423.191 18 .744 18 1.424v9.861c0 .68-.577 1.233-1.286 1.233zm.429-11.094a.42.42 0 00-.429-.411H1.286a.42.42 0 00-.429.411v9.861a.42.42 0 00.429.411H3a.42.42 0 01.428.411v1.49l1.857-1.78a.441.441 0 01.303-.121h11.126a.42.42 0 00.429-.411V1.424zm-4.8 5.547a.63.63 0 01-.643-.616.63.63 0 01.643-.617.63.63 0 01.643.617.63.63 0 01-.643.616zM9 6.971a.63.63 0 01-.643-.616A.63.63 0 019 5.738a.63.63 0 01.643.617.63.63 0 01-.643.616zm-3.586 0a.63.63 0 01-.642-.616.63.63 0 01.642-.617.63.63 0 01.643.617.63.63 0 01-.643.616z"></path>
  </symbol>
  <symbol xmlns="http://www.w3.org/2000/svg" viewBox="0 0 18 13" id="email">
    <path fill-rule="evenodd" fill="#436372" d="M17.624 12.629l-.001.002-.002.002a1.307 1.307 0 01-.907.361H1.286c-.354 0-.674-.138-.907-.362l-.002-.001-.001-.002A1.21 1.21 0 010 11.757V1.858C0 1.176.577.621 1.286.621h15.428c.709 0 1.286.555 1.286 1.237v9.899c0 .34-.144.648-.376.872zM7.536 6.325l-6.073 5.844h15.074l-6.074-5.844-.726.489c-.22.149-.479.223-.737.223-.259 0-.517-.074-.737-.223l-.727-.489zM.863 1.83c-.001.01-.006.018-.006.028v9.728l5.966-5.742L.863 1.83zm.925-.384l6.966 4.692a.445.445 0 00.492 0l6.965-4.692H1.788zm15.355.412c0-.01-.006-.018-.006-.028l-5.96 4.014 5.966 5.742V1.858z"></path>
  </symbol>
  <symbol xmlns="http://www.w3.org/2000/svg" viewBox="0 0 14 14" id="user">
    <path fill-rule="evenodd" fill="#436372" d="M13.81 12.755a.42.42 0 01-.428.411H.549a.42.42 0 01-.428-.411c0-2.99 2.097-5.491 4.941-6.29C4.027 5.848 3.33 4.754 3.33 3.499 3.33 1.571 4.961.003 6.966.003c2.004 0 3.636 1.568 3.636 3.496 0 1.255-.697 2.349-1.733 2.966 2.844.799 4.941 3.3 4.941 6.29zM9.746 3.499c0-1.474-1.247-2.673-2.78-2.673-1.533 0-2.781 1.199-2.781 2.673 0 1.475 1.248 2.674 2.781 2.674 1.533 0 2.78-1.199 2.78-2.674zm-2.78 3.497c-3.159 0-5.754 2.363-5.974 5.347h11.947c-.22-2.984-2.815-5.347-5.973-5.347z"></path>
  </symbol>
</svg>