<svg width="0" height="0" class="hidden">
 <symbol xmlns="http://www.w3.org/2000/svg" viewBox="0 0 18.94 16.969" id="basket">
    <path d="M5.53 16.978a2.074 2.074 0 110-4.147 2.056 2.056 0 011.46.6 2.03 2.03 0 01.61 1.466 2.071 2.071 0 01-2.07 2.081zm0-2.963a.889.889 0 10.34 1.71.9.9 0 00.55-.824.92.92 0 00-.26-.629.9.9 0 00-.63-.257zm8.39 2.963a2.045 2.045 0 01-1.46-.607 2.068 2.068 0 011.46-3.54 1.953 1.953 0 011.47.6 2.085 2.085 0 01-.67 3.383 2.093 2.093 0 01-.8.164zm0-2.963a.978.978 0 00-.82.548.887.887 0 001.16 1.161.891.891 0 00.29-1.452.9.9 0 00-.63-.257zm-11.27.164a.562.562 0 01-.25-.056.59.59 0 01-.29-.787 3.686 3.686 0 013.05-2.151L4.11 5.794a.591.591 0 111.16-.228l1.09 5.578h9.43l1.8-6.771H4.29A4.346 4.346 0 01.01.68.587.587 0 01.5.007a.6.6 0 01.68.5 3.159 3.159 0 003.11 2.682h14.07a.582.582 0 01.47.232.594.594 0 01.11.513l-2.13 7.956a.59.59 0 01-.57.44H5.88a.03.03 0 00-.02 0 2.66 2.66 0 00-2.68 1.51.586.586 0 01-.53.338z"></path>
  </symbol>
  <symbol xmlns="http://www.w3.org/2000/svg" viewBox="0 0 18 17" id="like">
    <path d="M8.913 16.244a.707.707 0 01-.28-.056c-.353-.15-8.65-3.75-8.65-10.76C.074 2.779 2.19.722 4.801.722c1.743 0 3.266.918 4.112 2.31a4.796 4.796 0 014.112-2.31c2.61 0 4.725 2.058 4.817 4.684 0 7.034-8.297 10.634-8.65 10.783a.71.71 0 01-.28.056zM4.8 2.106c-1.847 0-3.343 1.47-3.408 3.346 0 5.408 6.125 8.663 7.52 9.335 1.395-.672 7.52-3.93 7.52-9.358-.065-1.853-1.563-3.323-3.408-3.323s-3.342 1.47-3.408 3.346a.7.7 0 01-.704.67.7.7 0 01-.705-.67C8.143 3.576 6.646 2.106 4.8 2.106z"></path>
  </symbol>
  <symbol xmlns="http://www.w3.org/2000/svg" viewBox="0 0 20.03 20.031" id="points">
    <path d="M2.15 4.287a2.146 2.146 0 112.14-2.145 2.145 2.145 0 01-2.14 2.145zm0 7.869a2.146 2.146 0 112.14-2.147 2.146 2.146 0 01-2.14 2.147zm0 7.868a2.146 2.146 0 112.14-2.146 2.145 2.145 0 01-2.14 2.146zm7.86-15.737a2.146 2.146 0 112.15-2.145 2.143 2.143 0 01-2.15 2.145zm0 7.869a2.146 2.146 0 112.15-2.147 2.144 2.144 0 01-2.15 2.147zm0 7.868a2.146 2.146 0 112.15-2.146 2.143 2.143 0 01-2.15 2.146zm7.87-15.737a2.146 2.146 0 112.15-2.145 2.143 2.143 0 01-2.15 2.145zm0 7.869a2.146 2.146 0 112.15-2.147 2.144 2.144 0 01-2.15 2.147zm0 7.868a2.146 2.146 0 112.15-2.146 2.143 2.143 0 01-2.15 2.146z"></path>
  </symbol>
  <symbol xmlns="http://www.w3.org/2000/svg" viewBox="0 0 15.28 15.281" id="search">
    <path d="M2.98 6.076a.617.617 0 01.75.485 2.583 2.583 0 00.78 1.489A3.036 3.036 0 006 8.827a.636.636 0 01.49.743.649.649 0 01-.72.515 4.21 4.21 0 01-2.14-1.13A4.164 4.164 0 012.5 6.819a.6.6 0 01.48-.743zM6.26 0a6.267 6.267 0 016.28 6.257 6.136 6.136 0 01-.57 2.6l2.34 2.036c1.7 1.746.74 3.266.29 3.717-.42.454-1.99 1.414-3.73-.292l-2.06-2.35A6.261 6.261 0 116.26 0zm5.55 13.517a1.352 1.352 0 001.88.226 1.313 1.313 0 00-.23-1.874l-2.16-1.88a6.236 6.236 0 01-1.37 1.34zm-5.55-2.312a4.948 4.948 0 10-4.97-4.948A4.963 4.963 0 006.26 11.2z"></path>
  </symbol>
   <symbol xmlns="http://www.w3.org/2000/svg" viewBox="0 0 22 9" id="arrow">
    <path d="M.296 5.472H.288h16.956l-.1 2.857a.284.284 0 00-.084.205c0 .077.029.151.084.205l.172.172a.285.285 0 00.407.002l4.193-4.211a.292.292 0 000-.409L17.723.08a.29.29 0 00-.407 0l-.172.173a.287.287 0 000 .405l.113 2.865H.292A.297.297 0 000 3.818v1.37c0 .159.137.284.296.284z"></path>
  </symbol>
    <symbol xmlns="http://www.w3.org/2000/svg" viewBox="0 0 22 20" id="basket">
    <path d="M21.934 5.216l-3.717 8.56a.813.813 0 01-.746.488H7.257a.814.814 0 01-.787-.597L3.147 1.629H.814A.817.817 0 010 .814c0-.449.366-.816.814-.816h2.943c.367 0 .692.245.787.598l3.323 12.038h9.062l3.011-6.929H9.902a.816.816 0 010-1.631h11.286c.271 0 .529.137.678.366a.829.829 0 01.068.776zM6.484 16.303a1.848 1.848 0 010 3.696 1.849 1.849 0 010-3.696zm11.408 0a1.85 1.85 0 011.519 3.057c-.326.38-.773.598-1.262.639h-.135a1.85 1.85 0 01-1.831-1.726 1.849 1.849 0 011.709-1.97z"></path>
  </symbol>
  <symbol xmlns="http://www.w3.org/2000/svg" viewBox="0 0 22 18" id="like">
    <path d="M21.99 5.82a6.212 6.212 0 00-1.849-4.1C19.016.61 17.545-.001 16.002-.001c-2.311 0-3.948 1.785-4.827 2.745l-.156.169-.083-.094c-.804-.916-2.476-2.82-4.938-2.82-1.543 0-3.013.611-4.139 1.721A6.212 6.212 0 00.01 5.82c-.082 1.541.31 2.88 1.271 4.338.861 1.308 3.104 3.374 4.763 4.748 1.705 1.411 3.95 3.093 4.965 3.093 1.032 0 3.269-1.68 4.965-3.087 1.646-1.367 3.876-3.432 4.746-4.754.646-.984 1.375-2.366 1.27-4.338zm-2.376 3.61c-.632.961-2.412 2.736-4.431 4.418-2.406 2.004-3.831 2.795-4.172 2.826-.342-.035-1.77-.833-4.188-2.843-2.03-1.686-3.813-3.454-4.437-4.402-.795-1.206-1.12-2.297-1.054-3.538.135-2.519 2.228-4.569 4.666-4.569 1.863 0 3.216 1.542 3.943 2.37.428.488.663.755 1.059.755.409 0 .672-.286 1.151-.809.794-.866 2.122-2.316 3.851-2.316 2.438 0 4.531 2.05 4.666 4.569.067 1.254-.248 2.313-1.054 3.539z"></path>
  </symbol>
  <symbol xmlns="http://www.w3.org/2000/svg" viewBox="0 0 20 20" id="search">
    <path d="M19.45 19.448a1.873 1.873 0 01-2.651 0l-4.588-4.588a8.819 8.819 0 002.651-2.651l4.588 4.589c.733.732.733 1.92 0 2.65zM7.5 14.999A7.5 7.5 0 117.502-.003 7.5 7.5 0 017.5 15zm0-13.126a5.632 5.632 0 00-5.625 5.626A5.63 5.63 0 007.5 13.123a5.63 5.63 0 005.625-5.624A5.632 5.632 0 007.5 1.873zM4.375 7.499h-1.25A4.381 4.381 0 017.5 3.123v1.251a3.129 3.129 0 00-3.125 3.125z"></path>
  </symbol>
    <symbol xmlns="http://www.w3.org/2000/svg" viewBox="0 0 22 25" id="play-icon">
    <path d="M20.684 14.74L4.64 24.536a3.236 3.236 0 01-3.062.144c-.972-.47-1.579-1.387-1.579-2.385V2.7c0-.999.607-1.917 1.579-2.386A3.24 3.24 0 014.64.457l16.044 9.798c.822.502 1.315 1.343 1.315 2.241 0 .9-.493 1.741-1.315 2.244z"></path>
  </symbol>
   <symbol xmlns="http://www.w3.org/2000/svg" viewBox="0 0 7 12" id="arrow-right">
    <path d="M1.333 11.687a.557.557 0 01-.411-.183.602.602 0 01.022-.831l4.547-4.475L.944 1.724A.602.602 0 01.922.893.552.552 0 011.723.87L6.7 5.768l.014.014a.545.545 0 01.113.169h.001a.611.611 0 01.052.244v.003a.609.609 0 01-.053.249l-.001.001v.002a.594.594 0 01-.111.164l-.015.014-4.977 4.899a.551.551 0 01-.39.16z"></path>
  </symbol>
</svg>